REM DIRINDEX 1\2,1\3,1\4,1\5\6,1\5\7,1\8
REM DIRNAME cjc115,folder01,folder02,folder03,folder04,folder05,folder06,folder07
TITLE ""
FILE "010 Åy010ÅzUnit1 (0109 reluctant_0120 insurance).mp3" MP3
  TRACK 01 AUDIO
    TITLE "0:"
    INDEX 01 00:00:00
  TRACK 02 AUDIO
    TITLE "2:cjc115_0326"
    INDEX 01 00:00:07
  TRACK 03 AUDIO
    TITLE "0:"
    INDEX 01 00:01:36
  TRACK 04 AUDIO
    TITLE "3:cjc115_0327"
    INDEX 01 00:01:46
  TRACK 05 AUDIO
    TITLE "0:"
    INDEX 01 00:04:38
  TRACK 06 AUDIO
    TITLE "4:cjc115_0328"
    INDEX 01 00:04:48
  TRACK 07 AUDIO
    TITLE "0:"
    INDEX 01 00:07:29
  TRACK 08 AUDIO
    TITLE "2:cjc115_0329"
    INDEX 01 00:08:38
  TRACK 09 AUDIO
    TITLE "0:"
    INDEX 01 00:09:61
  TRACK 10 AUDIO
    TITLE "3:cjc115_0330"
    INDEX 01 00:09:71
  TRACK 11 AUDIO
    TITLE "0:"
    INDEX 01 00:11:07
  TRACK 12 AUDIO
    TITLE "4:cjc115_0331"
    INDEX 01 00:11:15
  TRACK 13 AUDIO
    TITLE "0:"
    INDEX 01 00:15:38
  TRACK 14 AUDIO
    TITLE "2:cjc115_0332"
    INDEX 01 00:16:48
  TRACK 15 AUDIO
    TITLE "0:"
    INDEX 01 00:17:59
  TRACK 16 AUDIO
    TITLE "3:cjc115_0333"
    INDEX 01 00:17:70
  TRACK 17 AUDIO
    TITLE "0:"
    INDEX 01 00:19:32
  TRACK 18 AUDIO
    TITLE "4:cjc115_0334"
    INDEX 01 00:19:42
  TRACK 19 AUDIO
    TITLE "0:"
    INDEX 01 00:22:21
  TRACK 20 AUDIO
    TITLE "2:cjc115_0335"
    INDEX 01 00:23:30
  TRACK 21 AUDIO
    TITLE "0:"
    INDEX 01 00:24:47
  TRACK 22 AUDIO
    TITLE "3:cjc115_0336"
    INDEX 01 00:24:59
  TRACK 23 AUDIO
    TITLE "0:"
    INDEX 01 00:26:11
  TRACK 24 AUDIO
    TITLE "4:cjc115_0337"
    INDEX 01 00:26:20
  TRACK 25 AUDIO
    TITLE "0:"
    INDEX 01 00:30:24
  TRACK 26 AUDIO
    TITLE "2:cjc115_0338"
    INDEX 01 00:31:35
  TRACK 27 AUDIO
    TITLE "0:"
    INDEX 01 00:32:64
  TRACK 28 AUDIO
    TITLE "3:cjc115_0339"
    INDEX 01 00:32:66
  TRACK 29 AUDIO
    TITLE "0:"
    INDEX 01 00:34:20
  TRACK 30 AUDIO
    TITLE "4:cjc115_0340"
    INDEX 01 00:34:30
  TRACK 31 AUDIO
    TITLE "0:"
    INDEX 01 00:38:20
  TRACK 32 AUDIO
    TITLE "2:cjc115_0341"
    INDEX 01 00:39:29
  TRACK 33 AUDIO
    TITLE "0:"
    INDEX 01 00:40:40
  TRACK 34 AUDIO
    TITLE "3:cjc115_0342"
    INDEX 01 00:40:48
  TRACK 35 AUDIO
    TITLE "0:"
    INDEX 01 00:42:06
  TRACK 36 AUDIO
    TITLE "4:cjc115_0343"
    INDEX 01 00:42:14
  TRACK 37 AUDIO
    TITLE "0:"
    INDEX 01 00:46:74
  TRACK 38 AUDIO
    TITLE "2:cjc115_0344"
    INDEX 01 00:48:10
  TRACK 39 AUDIO
    TITLE "0:"
    INDEX 01 00:49:23
  TRACK 40 AUDIO
    TITLE "3:cjc115_0345"
    INDEX 01 00:49:33
  TRACK 41 AUDIO
    TITLE "0:"
    INDEX 01 00:51:71
  TRACK 42 AUDIO
    TITLE "4:cjc115_0346"
    INDEX 01 00:52:04
  TRACK 43 AUDIO
    TITLE "0:"
    INDEX 01 00:55:24
  TRACK 44 AUDIO
    TITLE "2:cjc115_0347"
    INDEX 01 00:56:33
  TRACK 45 AUDIO
    TITLE "0:"
    INDEX 01 00:57:68
  TRACK 46 AUDIO
    TITLE "3:cjc115_0348"
    INDEX 01 00:58:03
  TRACK 47 AUDIO
    TITLE "0:"
    INDEX 01 01:00:47
  TRACK 48 AUDIO
    TITLE "4:cjc115_0349"
    INDEX 01 01:00:59
  TRACK 49 AUDIO
    TITLE "0:"
    INDEX 01 01:05:32
  TRACK 50 AUDIO
    TITLE "2:cjc115_0350"
    INDEX 01 01:06:42
  TRACK 51 AUDIO
    TITLE "0:"
    INDEX 01 01:07:64
  TRACK 52 AUDIO
    TITLE "3:cjc115_0351"
    INDEX 01 01:07:74
  TRACK 53 AUDIO
    TITLE "0:"
    INDEX 01 01:09:14
  TRACK 54 AUDIO
    TITLE "4:cjc115_0352"
    INDEX 01 01:09:24
  TRACK 55 AUDIO
    TITLE "0:"
    INDEX 01 01:13:04
  TRACK 56 AUDIO
    TITLE "2:cjc115_0353"
    INDEX 01 01:14:12
  TRACK 57 AUDIO
    TITLE "0:"
    INDEX 01 01:15:44
  TRACK 58 AUDIO
    TITLE "3:cjc115_0354"
    INDEX 01 01:15:52
  TRACK 59 AUDIO
    TITLE "0:"
    INDEX 01 01:18:13
  TRACK 60 AUDIO
    TITLE "4:cjc115_0355"
    INDEX 01 01:18:19
  TRACK 61 AUDIO
    TITLE "0:"
    INDEX 01 01:22:72
  TRACK 62 AUDIO
    TITLE "2:cjc115_0356"
    INDEX 01 01:24:02
  TRACK 63 AUDIO
    TITLE "0:"
    INDEX 01 01:25:33
  TRACK 64 AUDIO
    TITLE "3:cjc115_0357"
    INDEX 01 01:25:43
  TRACK 65 AUDIO
    TITLE "0:"
    INDEX 01 01:27:65
  TRACK 66 AUDIO
    TITLE "4:cjc115_0358"
    INDEX 01 01:27:71
  TRACK 67 AUDIO
    TITLE "0:"
    INDEX 01 01:32:08
  TRACK 68 AUDIO
    TITLE "2:cjc115_0359"
    INDEX 01 01:33:17
  TRACK 69 AUDIO
    TITLE "0:"
    INDEX 01 01:34:50
  TRACK 70 AUDIO
    TITLE "3:cjc115_0360"
    INDEX 01 01:34:59
  TRACK 71 AUDIO
    TITLE "0:"
    INDEX 01 01:35:59
  TRACK 72 AUDIO
    TITLE "4:cjc115_0361"
    INDEX 01 01:35:65
  TRACK 73 AUDIO
    TITLE "0:"
    INDEX 01 01:40:72
